<svg width="52" height="64" viewBox="0 0 52 64" fill="none" xmlns="http://www.w3.org/2000/svg">
<path d="M34.4041 7.24483C34.2411 7.24483 34.0999 7.22443 33.9586 7.17854C33.2361 7.17854 32.6277 6.6278 32.6277 5.92917V3.47635H19.7363V5.93427C19.7363 6.5666 19.1985 7.11734 18.5412 7.16324C18.3999 7.20913 18.2369 7.22953 18.074 7.22953H13.2173V12.3137H38.6523V7.22443H34.3552L34.4041 7.24483ZM9.24613 52.7471C8.88216 52.2423 9.02883 51.5538 9.57209 51.2122C10.1099 50.8705 10.8433 51.0031 11.2073 51.5181L11.8537 52.4105L14.4016 49.4988C14.8145 49.0245 15.5587 48.9582 16.0585 49.3458C16.5637 49.7333 16.6344 50.432 16.2215 50.9011L12.6903 54.9297C12.6143 55.0214 12.5165 55.1081 12.4079 55.1795C11.87 55.5212 11.1366 55.3835 10.7727 54.8736L9.24613 52.7471ZM21.893 52.8185C21.1705 52.8185 20.5621 52.2677 20.5621 51.5691C20.5621 50.8909 21.1488 50.3198 21.893 50.3198H41.3468C42.0694 50.3198 42.6778 50.8705 42.6778 51.5691C42.6778 52.2474 42.0911 52.8185 41.3468 52.8185H21.893ZM9.24613 41.4824C8.88216 40.9776 9.02883 40.2892 9.57209 39.9475C10.1099 39.6059 10.8433 39.7384 11.2073 40.2535L11.8537 41.1459L14.4016 38.2341C14.8145 37.7599 15.5587 37.6936 16.0585 38.0811C16.5637 38.4687 16.6344 39.1673 16.2215 39.6364L12.6903 43.665C12.6143 43.7568 12.5165 43.8435 12.4079 43.9149C11.87 44.2565 11.1366 44.1189 10.7727 43.6089L9.24613 41.4824ZM21.893 41.5538C21.1705 41.5538 20.5621 41.0031 20.5621 40.3045C20.5621 39.6262 21.1488 39.0551 21.893 39.0551H41.3468C42.0694 39.0551 42.6778 39.6059 42.6778 40.3045C42.6778 40.9827 42.0911 41.5538 41.3468 41.5538H21.893ZM9.43084 26.1025H16.7376L19.1224 21.5691L23.6314 27.6732L28.2165 19.2795L32.9808 28.0403L34.8224 26.4544L35.7785 26.1025H42.5637V28.7542H36.3218L32.1496 32.3494L28.2002 25.0878L23.99 32.7981L19.5299 26.7604L18.4814 28.7542H9.43084V26.1025ZM2.61847 61.1969H49.3055V10.7481C49.3055 10.6818 49.2837 10.5952 49.2131 10.5493C49.1642 10.5034 49.099 10.4626 49.0013 10.4626H41.3414V12.9613C41.3414 13.4661 41.1295 13.9251 40.7547 14.277C40.4016 14.6084 39.9127 14.8277 39.3531 14.8277H12.5654C12.0276 14.8277 11.5115 14.6084 11.1638 14.277C11.1149 14.2311 11.0932 14.1903 11.0497 14.1444C10.7672 13.8129 10.5825 13.3947 10.5825 12.9613V10.4626H2.92269C2.85207 10.4626 2.75972 10.483 2.71082 10.5493C2.66736 10.5952 2.61847 10.6818 2.61847 10.7481V61.1969ZM50.6908 63.5987V63.6548H0V63.5987V61.1969V10.7481C0 9.98323 0.325951 9.305 0.863769 8.79506C1.40159 8.28511 2.12411 7.98425 2.94442 7.98425H10.6043V6.6227C10.6043 6.11785 10.8161 5.6589 11.191 5.30704C11.5441 4.97558 12.033 4.7563 12.5926 4.7563H17.1287V3.05309C17.1287 2.48196 17.384 1.97711 17.7806 1.60995C18.1718 1.23259 18.7096 0.99292 19.318 0.99292H33.122C33.7305 0.99292 34.2683 1.23259 34.6594 1.60485C35.056 1.97711 35.3168 2.48196 35.3168 3.04799V4.7563H39.4074C39.9453 4.7563 40.4342 4.97558 40.809 5.30704C41.1621 5.63851 41.3957 6.11785 41.3957 6.6227V7.98425H49.0556C49.8705 7.98425 50.593 8.29021 51.1362 8.79506C51.674 9.2999 52 9.97813 52 10.7481V63.5936H50.6908V63.5987Z" fill="#00A8D6"/>
</svg>
