<svg width="91" height="93" viewBox="0 0 91 93" fill="none" xmlns="http://www.w3.org/2000/svg">
<path d="M15.2015 53.5213C11.6511 54.27 7.98113 54.3448 4.42328 50.6837C2.0464 48.2429 0.857962 44.5968 0.999977 40.7784C10.0964 51.3725 21.181 38.2778 7.72699 31.4721C14.2223 28.3875 20.3514 31.2849 23.6028 37.282C25.1425 40.1121 26.0618 41.5945 27.2353 42.6052C27.448 42.7921 27.6727 42.9647 27.908 43.1218C28.4056 41.6927 29.4188 40.5017 30.7483 39.7826C31.4993 39.393 32.3319 39.1877 33.1775 39.1837C35.5544 39.1837 38.5143 40.6062 39.0151 43.032C39.1221 43.0019 39.2328 42.9868 39.344 42.9871H41.0706C41.1624 42.9756 41.2553 42.9756 41.3471 42.9871C42.2597 43.0711 43.1196 43.4528 43.7947 44.0736C44.4699 44.6944 44.9229 45.52 45.0844 46.4236C45.2501 46.3446 45.4314 46.3037 45.615 46.3038H47.3416C47.4335 46.2924 47.5264 46.2924 47.6182 46.3038C50.0922 46.6856 51.0938 48.213 51.4451 50.1371H51.6395H53.3661C53.4579 50.1257 53.5508 50.1257 53.6426 50.1371C56.4829 50.5789 57.5966 52.4431 58.0301 54.6892C63.2622 53.8881 68.9204 50.7436 74.4739 56.4337C75.6827 57.7673 76.6087 59.3329 77.1959 61.0355C77.783 62.7381 78.0191 64.5423 77.8898 66.339C68.7934 55.7449 57.7087 68.8396 71.1628 75.6453C65.5793 78.2957 60.2575 76.5213 56.8118 72.1563C56.3413 73.4347 55.7559 74.6676 55.0628 75.8399C54.7787 76.3041 54.4872 76.7833 54.1135 77.4421C54.1096 77.4594 54.1096 77.4773 54.1135 77.4946C53.82 78.0128 53.4955 78.5129 53.1418 78.992H54.3377C54.8327 78.9939 55.3069 79.1918 55.6569 79.5424C56.0069 79.893 56.2044 80.3679 56.2064 80.8637V91.0535C56.2044 91.5493 56.0069 92.0242 55.6569 92.3748C55.3069 92.7254 54.8327 92.9232 54.3377 92.9252H27.2578C26.7628 92.9232 26.2886 92.7254 25.9386 92.3748C25.5886 92.0242 25.3911 91.5493 25.3891 91.0535V80.9386C25.3911 80.4428 25.5886 79.9678 25.9386 79.6172C26.2886 79.2666 26.7628 79.0688 27.2578 79.0668H27.908C27.582 78.1481 27.3564 77.1967 27.2353 76.2293L17.9222 60.9483L17.8773 60.8959C17.1403 59.9095 16.5137 58.8449 16.0087 57.7214C15.5734 56.7757 15.3005 55.7633 15.2015 54.7267C15.1714 54.3354 15.1714 53.9424 15.2015 53.5512V53.5213ZM83.9665 28.5971C83.9139 28.3951 83.8197 28.2064 83.6899 28.0431C83.5783 27.895 83.432 27.7767 83.2639 27.6987C83.1045 27.6041 82.9254 27.5478 82.7407 27.5339C82.5491 27.5284 82.3577 27.5511 82.1726 27.6013H82.1278L76.6266 29.2784C76.1107 29.4464 75.5515 29.4215 75.0526 29.2081C74.5537 28.9947 74.149 28.6074 73.9134 28.1179C73.6293 27.6388 73.3528 27.1671 73.0164 26.6205C72.6801 26.074 72.269 25.5873 71.9775 25.1231C71.686 24.6589 71.2599 24.2097 70.8115 23.7455C70.363 23.2813 70.064 22.892 69.5483 22.3754C69.219 22.0255 69.0068 21.5814 68.9412 21.1051C68.8756 20.6287 68.9597 20.1437 69.182 19.7175L72.1045 14.2146C72.2048 14.0527 72.2658 13.8694 72.2827 13.6796C72.2996 13.4898 72.2718 13.2987 72.2017 13.1215C72.1535 12.947 72.075 12.7823 71.97 12.6349C71.8464 12.4809 71.6908 12.3557 71.5141 12.268L64.5927 8.57691C64.4324 8.49022 64.2616 8.42479 64.0844 8.38225C63.8771 8.37824 63.6704 8.40601 63.4715 8.46461C63.3002 8.50444 63.1427 8.58979 63.0156 8.71168C62.8619 8.83552 62.7369 8.99135 62.6493 9.16839L59.9585 14.2221C59.7029 14.7036 59.2875 15.0808 58.784 15.2885C58.2806 15.4962 57.7206 15.5216 57.2005 15.3601C56.5876 15.2029 56.012 15.0532 55.5038 14.9483C54.9955 14.8435 54.3527 14.7387 53.7398 14.6563C53.1447 14.578 52.5459 14.5305 51.9459 14.5141C51.3181 14.4692 50.735 14.5141 50.1745 14.4692C49.6722 14.4882 49.178 14.3377 48.7714 14.0417C48.3647 13.7457 48.0692 13.3214 47.9321 12.837L46.0635 6.77255C46.0635 6.72763 46.0635 6.72763 46.0635 6.69768C46.0129 6.523 45.9374 6.35657 45.8393 6.20354C45.5871 5.94739 45.2545 5.7861 44.8975 5.74684C44.6897 5.72982 44.4806 5.75791 44.2846 5.82919L36.8774 8.09775C36.6756 8.14604 36.4868 8.23804 36.3243 8.36728C36.1775 8.48219 36.0576 8.62784 35.973 8.79404C35.8771 8.95531 35.8232 9.13807 35.816 9.32561C35.8073 9.51523 35.83 9.70498 35.8833 9.88714V9.92457L37.565 15.4275C37.7216 15.9466 37.6905 16.5043 37.4773 17.0027C37.264 17.5011 36.8823 17.9083 36.399 18.1528C35.9207 18.4298 35.4498 18.7068 34.9041 19.0512C34.3585 19.3956 33.8727 19.7625 33.4092 20.0919C32.9458 20.4213 32.4376 20.8406 31.9816 21.2449C31.5257 21.6492 31.1221 21.9936 30.6138 22.5177C30.2606 22.8518 29.8115 23.0662 29.33 23.1307C28.8485 23.1952 28.3589 23.1065 27.9305 22.877L22.4442 19.9496C22.2715 19.8534 22.0805 19.7947 21.8836 19.7774C21.7104 19.7767 21.5375 19.7943 21.3679 19.8298C21.1973 19.8675 21.0399 19.9503 20.9119 20.0694C20.7561 20.1942 20.6308 20.3529 20.5457 20.5336L20.2467 21.0877C18.5902 20.7667 16.8972 20.6785 15.2164 20.8256L16.5469 18.3175C16.9247 17.6081 17.4317 16.9758 18.0418 16.4532C18.6651 15.9498 19.3776 15.5688 20.1421 15.3302C20.91 15.0901 21.7181 15.0061 22.519 15.0831C23.3063 15.1912 24.0667 15.4451 24.7613 15.8318L28.8199 18.003L29.1189 17.7559C29.6421 17.2992 30.2027 16.865 30.7633 16.4233C31.3239 15.9815 31.9293 15.5398 32.4824 15.1804L32.6768 15.0382L31.5556 11.2573C31.3032 10.4933 31.219 9.68356 31.3089 8.88388C31.3787 8.08102 31.6128 7.30115 31.9966 6.59286C32.3628 5.88231 32.8718 5.25526 33.4915 4.75107C34.1144 4.24291 34.8304 3.86143 35.5993 3.62802L43.0662 1.30706C43.8252 1.05883 44.6237 0.954727 45.4207 1.00009C46.2228 1.06719 47.0019 1.30183 47.7079 1.68889C48.4273 2.08251 49.0642 2.61124 49.584 3.24618C50.0789 3.86343 50.4335 4.58141 50.6229 5.35003L51.9908 9.75237C52.0976 9.76328 52.2053 9.76328 52.3122 9.75237C52.9849 9.7898 53.68 9.87216 54.4125 9.93954C55.145 10.0069 55.8102 10.1492 56.5128 10.2839C56.614 10.2888 56.7132 10.3143 56.8043 10.3588L58.643 6.89234C59.0122 6.18307 59.5222 5.55687 60.1418 5.05218C60.7613 4.54748 61.4773 4.17495 62.2457 3.95745H62.2906C63.0415 3.72193 63.8326 3.64294 64.6151 3.72535C65.3975 3.80552 66.158 4.03151 66.8575 4.39169L73.7713 8.09026C74.4798 8.46832 75.1111 8.97625 75.6325 9.58766C76.1498 10.2049 76.5318 10.9243 76.7536 11.699C76.994 12.4655 77.0778 13.2727 77.0003 14.0724C76.897 14.8621 76.6432 15.6246 76.2529 16.3184L74.0853 20.3914C74.1675 20.4737 74.2572 20.601 74.3394 20.6834C74.7879 21.2149 75.2289 21.769 75.6624 22.3305C76.0959 22.892 76.5518 23.4985 76.9031 24.0525L77.0452 24.2546L80.8198 23.1241C81.583 22.8736 82.3914 22.7918 83.1892 22.8845C83.9895 22.9554 84.7674 23.1871 85.4763 23.5658C86.1867 23.9313 86.813 24.4413 87.3151 25.0632V25.1231C87.8224 25.7471 88.2032 26.4643 88.4362 27.2345L90.6786 34.6541H90.7159C90.9431 35.4131 91.0317 36.2069 90.9776 36.9975C90.9071 37.8002 90.6731 38.58 90.2899 39.2885C89.9107 39.9905 89.4037 40.6152 88.795 41.1303C88.1746 41.6299 87.4526 41.9876 86.6797 42.1785L82.2848 43.5486C82.2848 43.6609 82.2848 43.7882 82.2848 43.9005C82.2848 44.5818 82.1726 45.2706 82.1054 45.9295C82.1054 45.9295 82.1054 46.0118 82.1054 46.0418C82.0165 46.7569 81.8892 47.4667 81.7242 48.1681L81.6718 48.4226L85.1624 50.2869C85.8773 50.6486 86.5067 51.1591 87.0086 51.7843C87.5043 52.4019 87.8727 53.1119 88.0924 53.8731V53.9255C88.3276 54.6751 88.4064 55.4651 88.3241 56.2465C88.2451 57.0314 88.0168 57.7938 87.6514 58.4926L87.0983 59.5333L86.1117 59.0017C85.3746 56.8937 84.277 54.9303 82.8678 53.1993C82.7631 53.0571 82.651 52.9223 82.5314 52.7875C80.9503 50.8968 79.0378 49.311 76.8882 48.1082C76.9555 47.8311 77.0227 47.5466 77.0825 47.2621C77.1797 46.7006 77.2918 46.1091 77.3591 45.4503C77.3591 45.4503 77.3591 45.3679 77.3591 45.338C77.4413 44.7315 77.4861 44.185 77.531 43.6384C77.5758 43.0919 77.5983 42.448 77.5833 41.864C77.5643 41.3609 77.7146 40.8659 78.0101 40.4586C78.3056 40.0513 78.7291 39.7552 79.2127 39.6179L85.2596 37.7462C85.2596 37.7462 85.3119 37.7462 85.3418 37.7462C85.5144 37.6971 85.6783 37.6213 85.8276 37.5216C85.9598 37.4095 86.0646 37.2687 86.1341 37.1098C86.2233 36.9457 86.2767 36.7645 86.2911 36.5782C86.3081 36.37 86.28 36.1606 86.2088 35.9643L83.9665 28.5522V28.5971ZM58.5533 26.2836C59.6012 26.8337 60.5862 27.4964 61.4908 28.2602C62.3952 29.0053 63.2217 29.8407 63.9574 30.7533C64.6512 31.6503 65.2759 32.5989 65.826 33.5909C66.3616 34.5736 66.7925 35.61 67.1116 36.683C67.4503 37.7633 67.666 38.8784 67.7544 40.0073C67.8777 41.1369 67.8777 42.2767 67.7544 43.4063C67.7544 43.4887 67.7544 43.5486 67.7544 43.601C67.6636 44.5544 67.4936 45.4985 67.2461 46.4236C66.0203 46.5434 64.802 46.738 63.5986 46.9552L62.4924 46.3637C62.5895 46.1091 62.6718 45.8471 62.754 45.5776C62.9806 44.8091 63.1406 44.0226 63.2323 43.2267C63.2248 43.172 63.2248 43.1166 63.2323 43.0619C63.3186 42.2056 63.3186 41.3428 63.2323 40.4864C63.1537 39.6676 62.9986 38.8579 62.7689 38.0681C62.5331 37.2866 62.2123 36.5334 61.8122 35.822C61.4047 35.0625 60.9268 34.343 60.3846 33.6733C59.8391 33 59.2254 32.3853 58.5533 31.839C57.1823 30.7236 55.6086 29.8846 53.9192 29.3683C53.152 29.1413 52.3668 28.981 51.5722 28.8891C51.5179 28.8998 51.462 28.8998 51.4077 28.8891C50.5525 28.8102 49.6918 28.8102 48.8365 28.8891C48.0188 28.9703 47.2105 29.1282 46.4223 29.3608C45.6421 29.597 44.8901 29.9184 44.1799 30.3191C43.4218 30.7246 42.7035 31.2009 42.0348 31.7416C41.3711 32.284 40.7627 32.8909 40.2185 33.5535C40.0466 33.7556 39.8747 33.9727 39.7102 34.2048L35.6292 32.0261C35.9551 31.5317 36.3095 31.0568 36.6905 30.6036C37.4146 29.7042 38.2285 28.8813 39.1197 28.1479C40.0133 27.448 40.9605 26.8196 41.9526 26.2686C42.9588 25.7354 44.0122 25.2968 45.0993 24.9584C46.1679 24.6276 47.2673 24.4068 48.3806 24.2996C49.5111 24.1798 50.651 24.1798 51.7815 24.2996C51.8562 24.2996 51.9235 24.337 51.9683 24.2996C53.0696 24.4051 54.1584 24.6157 55.2197 24.9285C56.3514 25.2758 57.4495 25.7244 58.501 26.2686L58.5533 26.2836ZM30.2326 44.2524V44.3272V44.4246V44.5818V44.6642V44.7465V45.0011V45.1733V45.2631V45.4353V45.5326V45.63V45.922V46.0193V46.1241V46.3113V60.1472C30.2459 60.3201 30.2235 60.4938 30.1666 60.6575C30.1097 60.8212 30.0197 60.9714 29.9021 61.0986C29.7846 61.2258 29.642 61.3273 29.4835 61.3968C29.3249 61.4662 29.1537 61.502 28.9806 61.502C28.8076 61.502 28.6364 61.4662 28.4778 61.3968C28.3192 61.3273 28.1767 61.2258 28.0591 61.0986C27.9416 60.9714 27.8515 60.8212 27.7946 60.6575C27.7378 60.4938 27.7153 60.3201 27.7287 60.1472V57.8263C27.663 57.789 27.6005 57.7465 27.5418 57.699L24.7688 55.7748L21.5249 53.102C21.1936 52.8223 20.8266 52.5882 20.4336 52.4057H19.589C19.2309 52.3161 18.8546 52.3317 18.5052 52.4506C18.3714 52.5073 18.2503 52.5901 18.1489 52.6942C18.0475 52.7983 17.9679 52.9217 17.9147 53.0571H17.8399C17.6872 53.5687 17.6364 54.1055 17.6905 54.6368C17.7673 55.3898 17.972 56.1241 18.2959 56.808C18.7286 57.7266 19.2599 58.5952 19.8805 59.3985C19.8805 59.3985 19.9328 59.4734 19.9552 59.5183L29.4478 75.0613C29.5628 75.231 29.6347 75.4264 29.6571 75.6303C29.7379 76.8321 30.0716 78.0033 30.6362 79.0668H49.584C50.5402 78.3401 51.326 77.4124 51.8861 76.3491C51.8984 76.3249 51.9135 76.3023 51.931 76.2817C52.2 75.8175 52.5588 75.226 52.9101 74.6495C53.8327 73.0435 54.5508 71.3281 55.0478 69.5434V69.4985V69.4236V69.3787V69.3038V69.2514V69.1765L55.0927 69.0268V68.9519V68.8845V68.8097V68.7573V68.6824V68.6075V68.5326V68.3829V68.308V68.2407V68.1658V68.0909V68.031V67.9561V67.9037V67.8289V67.754V67.6791V67.6267V67.5518V67.492V67.4246V67.3497V67.2823V67.2075V67.1326V67.0652V66.8481V66.7732V66.6983V66.631V66.5561V66.4887V66.4138V65.7849V65.0362L54.9955 60.7687C54.9918 60.7088 54.9918 60.6488 54.9955 60.589C54.9955 60.5291 54.9955 60.1248 54.9955 59.5857V59.4509V58.53V58.3878V57.422V57.2797V56.4786V56.3513V56.2166V56.0743V56.0069V55.5278V55.4679V55.4005V55.3331V55.2657V55.2133V55.1459V55.086V55.0186V54.9063C54.9051 54.3568 54.6502 53.8477 54.2644 53.4466C53.8786 53.0454 53.3803 52.7712 52.8354 52.6602H51.632C51.632 53.0121 51.632 53.3565 51.632 53.7084V53.7833V53.8432V54.1576V54.2325V54.2849V54.3224V54.3598V54.3972C51.5871 55.0935 51.5498 55.7748 51.5498 56.4187C51.5498 56.7523 51.4175 57.0722 51.182 57.3081C50.9465 57.544 50.6271 57.6765 50.2941 57.6765C49.961 57.6765 49.6416 57.544 49.4061 57.3081C49.1706 57.0722 49.0383 56.7523 49.0383 56.4187C49.0383 55.7748 49.0907 55.0261 49.1355 54.2475V54.0004V53.8731V53.7608V53.5138V53.3865V53.2742V53.1469V53.5587V53.3041V53.0571V52.81V52.6602C49.1355 50.7735 48.7992 49.1339 47.2818 48.8569H45.6225C45.5332 48.8687 45.4427 48.8687 45.3534 48.8569C45.3534 49.5606 45.3534 50.2944 45.2936 51.0056V51.7543C45.2488 52.4506 45.2114 53.1244 45.2114 53.7683C45.2114 54.1019 45.0791 54.4218 44.8436 54.6577C44.6081 54.8936 44.2887 55.0261 43.9557 55.0261C43.6227 55.0261 43.3033 54.8936 43.0678 54.6577C42.8323 54.4218 42.7 54.1019 42.7 53.7683C42.7 53.1244 42.7523 52.3757 42.7972 51.5971V51.4698V51.3575V51.2377V51.1104V50.9832V50.8559V50.6163V50.4965V50.3692V50.2644V50.1371V50.0099V49.9574C42.857 47.8311 42.6253 45.8696 40.951 45.5626H39.3365C39.2277 45.5634 39.1195 45.5483 39.0151 45.5177V50.3767C39.0151 50.7103 38.8828 51.0302 38.6473 51.2661C38.4118 51.502 38.0924 51.6345 37.7594 51.6345C37.4263 51.6345 37.107 51.502 36.8715 51.2661C36.636 51.0302 36.5037 50.7103 36.5037 50.3767V44.2374C36.5037 42.5004 34.7845 41.7517 33.1775 41.7517C32.7254 41.7527 32.2798 41.8605 31.877 42.0662C31.0439 42.5665 30.438 43.3721 30.1878 44.3123L30.2326 44.2524ZM27.3774 53.4089L26.1964 52.9223C25.6597 52.7032 25.1106 52.5157 24.552 52.3608L26.3534 53.8582L27.3774 54.6967V53.4089Z" fill="#00A8D6"/>
</svg>
