<svg width="98" height="96" viewBox="0 0 98 96" fill="none" xmlns="http://www.w3.org/2000/svg">
<path fill-rule="evenodd" clip-rule="evenodd" d="M71.3068 19.7986V19.8706C64.293 18.752 57.1924 18.2752 50.0926 18.4461C42.0009 18.4713 33.9284 19.2374 25.9754 20.7349C19.6909 -8.80305 79.5612 -4.61765 71.3068 19.7986ZM38.0579 92.8312C36.3114 94.1596 34.3574 95.232 31.4863 94.1196C30.5191 93.7101 29.6445 93.1083 28.9153 92.3504C28.1862 91.5926 27.6174 90.6945 27.2435 89.7101C34.6605 93.0793 37.3162 83.396 28.5355 83.1079C31.2152 79.9068 35.1709 79.9068 38.369 82.3076C39.3135 83.1304 40.3928 83.7829 41.5591 84.2363C42.0789 84.3747 42.617 84.4314 43.1541 84.4043C45.1958 84.4043 52.4134 84.1803 54.5747 84.1322C58.6501 84.0522 60.7157 77.7301 66.5376 79.9789C67.5048 80.3884 68.3794 80.9902 69.1086 81.748C69.8378 82.5059 70.4065 83.404 70.7804 84.3883C63.3634 81.0192 60.7077 90.7025 69.4884 90.9906C66.8088 94.2317 62.853 94.1916 59.655 91.8308C58.2593 90.7825 57.374 89.5581 54.6146 89.6381C52.6926 89.7181 45.4989 89.8382 43.5848 89.9742C42.9874 89.9798 42.3949 90.0825 41.8302 90.2783C40.9609 90.6144 40.1714 91.2947 38.1058 92.8712L38.0579 92.8312ZM23.2718 76.9698C23.7005 76.9714 24.1191 77.1004 24.4748 77.3406C24.8305 77.5807 25.1073 77.9212 25.2703 78.3191C25.4332 78.717 25.475 79.1544 25.3904 79.5761C25.3058 79.9978 25.0986 80.3849 24.7949 80.6886C24.4912 80.9922 24.1047 81.1987 23.6841 81.282C23.2635 81.3654 22.8278 81.3218 22.4319 81.1568C22.0359 80.9919 21.6976 80.7129 21.4596 80.3551C21.2216 79.9973 21.0946 79.5768 21.0946 79.1466C21.0946 78.86 21.1509 78.5763 21.2605 78.3117C21.37 78.0471 21.5305 77.8068 21.7327 77.6046C21.935 77.4023 22.1751 77.2421 22.4392 77.1332C22.7033 77.0243 22.9863 76.9688 23.2718 76.9698ZM75.5736 76.9698C76.0012 76.9762 76.4174 77.1092 76.7699 77.3521C77.1224 77.5951 77.3955 77.9373 77.5548 78.3355C77.7141 78.7338 77.7526 79.1704 77.6653 79.5905C77.578 80.0106 77.3689 80.3955 77.0643 80.6967C76.7597 80.9979 76.3732 81.2021 75.9533 81.2835C75.5334 81.365 75.0989 81.32 74.7043 81.1544C74.3098 80.9887 73.9729 80.7097 73.7359 80.3525C73.4989 79.9953 73.3724 79.5757 73.3724 79.1466C73.3713 78.8604 73.4267 78.5769 73.5354 78.3123C73.644 78.0478 73.8038 77.8074 74.0054 77.605C74.2071 77.4027 74.4466 77.2424 74.7103 77.1334C74.9739 77.0244 75.2565 76.9688 75.5417 76.9698H75.5736ZM36.4948 52.9618C32.8581 55.5226 29.0539 56.4749 25.3294 57.1552L30.633 72.2242H69.1535L73.3245 57.2592C70.0148 56.9231 66.9443 56.659 64.5039 55.3786C63.3499 54.6168 62.3533 53.6386 61.569 52.4976L61.4095 50.0088C62.2973 49.2835 63.1 48.4593 63.8021 47.5519C65.3971 45.5513 66.0112 42.3422 66.7769 39.7253C66.9284 39.1731 67.0799 38.6209 67.2713 38.0687C68.7707 37.9167 70.0866 36.2201 70.8841 34.1314C71.3436 32.9579 71.644 31.7279 71.7773 30.4742C71.9427 29.4095 71.7958 28.3195 71.3547 27.3371C71.2058 27.0338 70.9801 26.775 70.7001 26.5868C70.4202 26.3986 70.0958 26.2875 69.7596 26.2648C69.8119 25.1413 70.013 24.0298 70.3577 22.9596C63.6558 21.9366 56.8777 21.5028 50.1006 21.6632C42.2201 21.6883 34.3584 22.4357 26.6134 23.896L27.2993 27.1531C26.764 28.2922 26.5913 29.5692 26.8049 30.8103C26.9628 32.2432 27.3676 33.6377 28.0011 34.9317C28.7987 36.5322 29.9312 37.6046 31.2471 37.6046C31.3747 37.9727 31.5262 38.4049 31.6458 38.773C32.7225 41.9741 33.512 45.4872 35.4421 47.768C35.9894 48.4345 36.5924 49.0529 37.2445 49.6166L37.0929 52.4176C36.9095 52.5936 36.7181 52.7617 36.5187 52.9377L36.4948 52.9618ZM19.2204 58.2675C12.3776 59.8281 6.38021 63.2212 2.9987 78.1062L0 94.9999H16.2695V75.3693C16.2695 74.5203 16.6056 73.7061 17.2039 73.1058C17.8022 72.5055 18.6136 72.1682 19.4596 72.1682H22.8411C22.6976 66.6464 19.9461 60.8524 19.2443 58.2435L19.2204 58.2675ZM82.5759 94.9999H98L94.8099 77.2419C91.8511 63.9094 85.8856 59.7961 79.6569 58.2195C79.0269 60.8364 77.0968 67.0225 76.9932 72.1922H79.3857C80.2318 72.1922 81.0432 72.5295 81.6415 73.1298C82.2397 73.7301 82.5759 74.5443 82.5759 75.3933V95.0239V94.9999ZM42.5321 10.6755H55.4679C55.6139 10.6755 55.7539 10.7337 55.8571 10.8372C55.9603 10.9408 56.0182 11.0812 56.0182 11.2277V14.2207C56.0182 14.3679 55.9605 14.5092 55.8575 14.614C55.7546 14.7188 55.6146 14.7788 55.4679 14.7809H42.5321C42.3854 14.7788 42.2454 14.7188 42.1425 14.614C42.0395 14.5092 41.9818 14.3679 41.9818 14.2207V11.2037C41.9818 11.0572 42.0397 10.9168 42.1429 10.8132C42.2461 10.7097 42.3861 10.6515 42.5321 10.6515V10.6755ZM59.4795 50.9931C56.0182 53.3059 53.8968 54.5783 49.4386 54.4663C44.9805 54.3542 42.8112 52.9217 39.334 50.721C39.0788 65.2939 59.8145 66.1582 59.4795 50.9931ZM64.6634 39.2691C64.8468 38.6209 65.0622 37.9407 65.3014 37.1484C65.345 36.9766 65.4509 36.8272 65.5984 36.7295C65.7458 36.6318 65.9244 36.5929 66.099 36.6202C67.1118 36.8043 68.1247 35.3318 68.8265 33.5472C69.2353 32.4908 69.5035 31.3849 69.624 30.2581C69.7515 29.448 69.6578 28.6183 69.3529 27.8573C69.0737 27.3531 68.3241 27.6492 67.7578 27.1531C64.8548 34.8757 39.5573 38.3568 29.2054 27.7373C28.8249 28.6187 28.7165 29.5944 28.8944 30.5382C29.0479 31.8089 29.4118 33.045 29.971 34.1954C30.6091 35.4519 31.4385 36.3161 32.2679 36.1001C32.4306 36.0606 32.602 36.083 32.7492 36.1627C32.8965 36.2425 33.0091 36.3741 33.0654 36.5322C33.3127 37.2044 33.4642 37.7246 33.6476 38.2528C38.9193 55.0104 59.304 56.3469 64.6714 39.2371L64.6634 39.2691Z" fill="#00A8D6"/>
</svg>
