<svg width="375" height="1009" viewBox="0 0 375 1009" fill="none" xmlns="http://www.w3.org/2000/svg">
<path fill-rule="evenodd" clip-rule="evenodd" d="M75.853 -61L70.3698 -31.6365C81.3344 9.32436 104.18 109.188 140.935 185.054C178.396 260.631 232.666 386.308 271.742 461.362C304.297 523.89 356.454 673.181 380.338 756.363C440.768 966.829 423.512 909.126 428.829 952.394L482.263 1020.69L333.35 1005.03L296.991 1019.88C281.085 980.935 313.115 1057.61 290.496 976.159C265.67 886.762 226.566 801.878 212.519 709.208C198.443 616.349 36.1382 318.738 4.32511 240.854C-27.488 162.969 -44.8282 79.1731 -60.7348 40.2309L-76.6413 1.28859L75.853 -61Z" fill="url(#paint0_linear_92_197)"/>
<defs>
<linearGradient id="paint0_linear_92_197" x1="-39.233" y1="-8.93638" x2="331.395" y2="929.114" gradientUnits="userSpaceOnUse">
<stop stop-color="#28499A" stop-opacity="0.96"/>
<stop offset="1" stop-color="#00A8D6" stop-opacity="0"/>
</linearGradient>
</defs>
</svg>
