<svg width="42" height="42" viewBox="0 0 42 42" fill="none" xmlns="http://www.w3.org/2000/svg">
<path d="M31.5 17.0625H28.875C28.874 16.0185 28.4588 15.0176 27.7206 14.2794C26.9824 13.5412 25.9815 13.126 24.9375 13.125V10.5C26.6773 10.5021 28.3453 11.1942 29.5756 12.4244C30.8058 13.6547 31.4979 15.3227 31.5 17.0625Z" fill="#28499A"/>
<path d="M36.75 17.0625H34.125C34.1222 14.6267 33.1534 12.2914 31.431 10.569C29.7086 8.84665 27.3733 7.87779 24.9375 7.87501V5.25001C28.0693 5.25349 31.0719 6.49913 33.2864 8.71365C35.5009 10.9282 36.7465 13.9307 36.75 17.0625ZM26.6871 28.1951L29.6271 25.2551C30.0206 24.8615 30.521 24.592 31.0662 24.48C31.6115 24.368 32.1776 24.4185 32.6944 24.6251L36.2749 26.0584C36.8026 26.2695 37.255 26.634 37.5736 27.1047C37.8923 27.5754 38.0625 28.1307 38.0625 28.6991V35.2104C38.0634 35.5975 37.9854 35.9806 37.8331 36.3364C37.6808 36.6922 37.4575 37.0131 37.1769 37.2796C36.8963 37.5461 36.5642 37.7525 36.201 37.8863C35.8379 38.02 35.4512 38.0782 35.0648 38.0573C9.96715 36.4954 4.89827 15.2381 3.95721 7.09801C3.91163 6.70006 3.95082 6.29696 4.07221 5.91524C4.19359 5.53351 4.39441 5.18181 4.66146 4.88327C4.92852 4.58472 5.25575 4.3461 5.62164 4.18309C5.98753 4.02009 6.38378 3.93639 6.78434 3.93751H13.1801C13.7486 3.93749 14.3039 4.10778 14.7746 4.42642C15.2453 4.74505 15.6097 5.19741 15.8209 5.72514L17.2528 9.30564C17.4595 9.82247 17.5099 10.3886 17.398 10.9338C17.286 11.479 17.0165 11.9794 16.6228 12.3729L13.6828 15.3129C13.6828 15.3129 15.313 26.7737 26.6871 28.1951Z" fill="#28499A"/>
</svg>
