<svg width="8" height="5" viewBox="0 0 8 5" fill="none" xmlns="http://www.w3.org/2000/svg">
<path fill-rule="evenodd" clip-rule="evenodd" d="M7.88489 2.10385C7.88489 2.18355 7.83297 2.25998 7.74056 2.31633C7.64816 2.37269 7.52282 2.40435 7.39214 2.40435H1.68313L3.799 3.69408C3.84482 3.72201 3.88116 3.75518 3.90595 3.79169C3.93075 3.82819 3.94351 3.86732 3.94351 3.90683C3.94351 3.94634 3.93075 3.98546 3.90595 4.02197C3.88116 4.05847 3.84482 4.09164 3.799 4.11958C3.75319 4.14752 3.6988 4.16968 3.63894 4.1848C3.57908 4.19992 3.51492 4.2077 3.45013 4.2077C3.38534 4.2077 3.32119 4.19992 3.26133 4.1848C3.20147 4.16968 3.14708 4.14752 3.10127 4.11958L0.144764 2.3166C0.0988758 2.28869 0.0624685 2.25553 0.0376275 2.21902C0.0127865 2.18251 0 2.14338 0 2.10385C0 2.06433 0.0127865 2.02519 0.0376275 1.98868C0.0624685 1.95217 0.0988758 1.91901 0.144764 1.8911L3.10127 0.0881245C3.19379 0.0316994 3.31928 0 3.45013 0C3.58098 0 3.70648 0.0316994 3.799 0.0881245C3.89153 0.14455 3.94351 0.221079 3.94351 0.300876C3.94351 0.380673 3.89153 0.457202 3.799 0.513627L1.68313 1.80336H7.39214C7.52282 1.80336 7.64816 1.83501 7.74056 1.89137C7.83297 1.94772 7.88489 2.02415 7.88489 2.10385Z" fill="white"/>
</svg>
