<svg width="29" height="23" viewBox="0 0 29 23" fill="none" xmlns="http://www.w3.org/2000/svg">
<path d="M4.28409 8.82611e-09H24.7159C25.8102 -6.8768e-05 26.863 0.401819 27.6584 1.12322C28.4538 1.84462 28.9315 2.83085 28.9934 3.87959L29 4.11241V18.664C29.0001 19.7144 28.5814 20.7251 27.8299 21.4886C27.0784 22.2521 26.051 22.7106 24.9585 22.7701L24.7159 22.7764H4.28409C3.18982 22.7765 2.137 22.3746 1.34161 21.6532C0.546211 20.9318 0.0685437 19.9456 0.00659107 18.8968L9.19456e-09 18.664V4.11241C-7.16389e-05 3.06199 0.418594 2.05136 1.17011 1.28784C1.92163 0.524322 2.94903 0.0657969 4.04155 0.00632694L4.28409 8.82611e-09H24.7159H4.28409ZM27.0227 7.47193L14.9561 13.495C14.8392 13.5533 14.7114 13.5886 14.5801 13.5988C14.4488 13.6091 14.3167 13.594 14.1915 13.5545L14.0439 13.495L1.97727 7.47193V18.664C1.97729 19.2197 2.195 19.7552 2.58717 20.164C2.97934 20.5728 3.5173 20.8251 4.09427 20.8708L4.28409 20.8784H24.7159C25.2951 20.8783 25.853 20.6692 26.2789 20.2925C26.7048 19.9158 26.9675 19.399 27.0148 18.845L27.0227 18.664V7.47193ZM24.7159 1.89804H4.28409C3.70516 1.89806 3.1474 2.10704 2.72153 2.48349C2.29566 2.85995 2.03282 3.37635 1.98518 3.9302L1.97727 4.11241V5.33221L14.5 11.5831L27.0227 5.33221V4.11241C27.0227 3.55648 26.8048 3.0209 26.4123 2.61207C26.0199 2.20323 25.4816 1.95106 24.9044 1.90563L24.7159 1.89804Z" fill="#28499A"/>
</svg>
